<?xml version="1.0" standalone="no"?><!DOCTYPE svg PUBLIC "-//W3C//DTD SVG 1.1//EN" "http://www.w3.org/Graphics/SVG/1.1/DTD/svg11.dtd"><svg t="1729420159351" class="icon" viewBox="0 0 1024 1024" version="1.1" xmlns="http://www.w3.org/2000/svg" p-id="17730" xmlns:xlink="http://www.w3.org/1999/xlink" width="200" height="200"><path d="M441.856 583.253333a185.813333 185.813333 0 0 0-124.245333-7.893333l-71.253334 20.309333-23.424-82.005333 71.253334-20.352a271.146667 271.146667 0 0 1 181.290666 11.477333c39.253333 16.810667 83.157333 19.626667 124.245334 7.850667l71.253333-20.309333 23.424 82.005333-71.253333 20.352a271.146667 271.146667 0 0 1-181.290667-11.477333z" fill="#F58718" p-id="17731"></path><path d="M405.333333 42.666667v213.333333h85.333334V42.666667h-85.333334zM192 85.333333v128h85.333333V85.333333h-85.333333zM618.666667 213.333333V85.333333h85.333333v128h-85.333333zM85.333333 298.666667a42.666667 42.666667 0 0 0-42.666666 42.666666v149.333334A405.333333 405.333333 0 0 0 266.794667 853.333333H128v85.333334h640v-85.333334h-138.794667a406.784 406.784 0 0 0 195.712-213.333333H853.333333a149.333333 149.333333 0 1 0 0-298.666667 42.666667 42.666667 0 0 0-42.666666-42.666666H85.333333z m682.666667 85.333333v106.666667a320 320 0 0 1-640 0V384h640z m85.333333 42.666667a64 64 0 0 1 0 128h-5.034666A408.32 408.32 0 0 0 853.333333 490.666667V426.666667z" fill="#00B2C2" p-id="17732"></path></svg>