<?xml version="1.0" standalone="no"?><!DOCTYPE svg PUBLIC "-//W3C//DTD SVG 1.1//EN" "http://www.w3.org/Graphics/SVG/1.1/DTD/svg11.dtd"><svg t="1729420289907" class="icon" viewBox="0 0 1024 1024" version="1.1" xmlns="http://www.w3.org/2000/svg" p-id="24838" xmlns:xlink="http://www.w3.org/1999/xlink" width="200" height="200"><path d="M820.2 927.6H454.5c-6.6 0-12-5.4-12-12v-8c0-6.6 5.4-12 12-12h365.7c6.6 0 12 5.4 12 12v8c0 6.6-5.4 12-12 12z m-292.6-32C647 792.8 640 653 606 578c62.8-24.3 82.1-43.9 88.6-106.3 69.9 64.3 63.3 343.5 56 423.8l-223 0.1z m115.5-497.3c-5.7-2.5-11.7-4.4-17.8-5.7-0.1 0-0.2-0.1-0.4-0.1-6.3-1.3-12.9-2-19.5-2-52.9 0-95.7 43.3-95.7 96.8 0 6.8 0.8 13.4 2 19.8 0 0.1 0.1 0.2 0.1 0.4 1.3 6.2 3.2 12.3 5.7 18L395.2 648.9c-16.1 16.2-42 16.2-58.1 0l-87.1-88c-16.1-16.2-16.1-42.5 0-58.6l389.6-393.9c16.1-16.2 42-16.2 58.1 0l87.1 88c16.1 16.2 16.1 42.5 0 58.6L643.1 398.3z" fill="#1976D2" p-id="24839"></path><path d="M508.7 482.8a93.3 93.3 0 1 0 186.6 0 93.3 93.3 0 1 0-186.6 0z" fill="#FFFFFF" p-id="24840"></path><path d="M303.9 499.8c-9.3 0-16.8 7.6-16.8 16.8 0 9.3 7.6 16.8 16.8 16.8 9.3 0 16.8-7.6 16.8-16.8 0-9.3-7.5-16.8-16.8-16.8z m354.5-17c0 28-22.7 50.6-50.6 50.6s-50.6-22.7-50.6-50.6 22.7-50.6 50.6-50.6c27.9 0 50.6 22.7 50.6 50.6z" fill="#42A5F5" p-id="24841"></path><path d="M360.8 769.6l-4.3 4.2c-4.7 4.6-12.3 4.6-17-0.1L131.8 563.4c-4.6-4.7-4.6-12.3 0.1-17l4.3-4.2c4.7-4.6 12.3-4.6 17 0.1l207.7 210.3c4.6 4.7 4.6 12.3-0.1 17z" fill="#00BCD4" p-id="24842"></path></svg>